<?xml version="1.0" encoding="UTF-8"?>
<svg id="Layer_2" data-name="Layer 2" xmlns="http://www.w3.org/2000/svg" viewBox="0 0 1222.04 251.52">
  <defs>
    <style>
      .cls-1 {
        fill: #0d4d3b;
      }
    </style>
  </defs>
  <g id="Layer_1-2" data-name="Layer 1">
    <g>
      <path class="cls-1" d="M361.04,68.34c7.83,4.11,13.95,10.19,18.36,18.25,4.41,8.06,6.62,17.79,6.62,29.2v74.14h-25.78V119.67c0-11.25-2.82-19.88-8.44-25.89-5.63-6.01-13.31-9.01-23.04-9.01s-17.45,3-23.15,9.01c-5.7,6.01-8.56,14.64-8.56,25.89v70.26h-26V64.24h26v14.37c4.26-5.17,9.7-9.2,16.31-12.09s13.65-4.33,21.1-4.33c9.88,0,18.74,2.05,26.57,6.16Z"/>
      <path class="cls-1" d="M397.99,92.98c5.25-9.73,12.39-17.3,21.44-22.7,9.05-5.4,19.05-8.1,30-8.1,9.88,0,18.51,1.94,25.89,5.82,7.37,3.88,13.27,8.71,17.68,14.49v-18.25h26.23v125.69h-26.23v-18.71c-4.41,5.93-10.42,10.88-18.02,14.83-7.61,3.95-16.27,5.93-26,5.93-10.8,0-20.68-2.77-29.66-8.33-8.98-5.55-16.08-13.3-21.33-23.27-5.25-9.96-7.87-21.25-7.87-33.87s2.62-23.8,7.87-33.53Zm89.65,11.4c-3.57-6.39-8.25-11.25-14.03-14.6-5.78-3.34-12.01-5.02-18.71-5.02s-12.93,1.64-18.7,4.9c-5.78,3.27-10.46,8.06-14.03,14.37-3.58,6.31-5.36,13.8-5.36,22.47s1.79,16.28,5.36,22.81c3.57,6.54,8.29,11.52,14.14,14.94,5.85,3.42,12.05,5.13,18.59,5.13s12.93-1.67,18.71-5.02c5.78-3.34,10.46-8.25,14.03-14.71,3.57-6.46,5.36-14.03,5.36-22.7s-1.79-16.2-5.36-22.58Z"/>
      <path class="cls-1" d="M534.51,42.8c-3.19-3.19-4.79-7.15-4.79-11.86s1.6-8.67,4.79-11.86c3.19-3.19,7.15-4.79,11.86-4.79s8.44,1.6,11.63,4.79c3.19,3.19,4.79,7.15,4.79,11.86s-1.6,8.67-4.79,11.86c-3.19,3.19-7.07,4.79-11.63,4.79s-8.67-1.59-11.86-4.79Zm24.64,21.44v125.69h-26V64.24h26Z"/>
      <path class="cls-1" d="M597.58,200.28c0,12.32-3.08,21.25-9.24,26.8-6.16,5.55-15.09,8.33-26.8,8.33h-13.46v-21.9h8.9c5.32,0,9.08-1.03,11.29-3.08,2.2-2.05,3.31-5.44,3.31-10.15V49.96h26V200.28Zm-24.64-171.77c-3.19-3.19-4.79-7.15-4.79-11.86s1.6-8.67,4.79-11.86c3.19-3.19,7.15-4.79,11.86-4.79s8.44,1.6,11.63,4.79c3.19,3.19,4.79,7.15,4.79,11.86s-1.6,8.67-4.79,11.86c-3.19,3.19-7.07,4.79-11.63,4.79s-8.67-1.59-11.86-4.79Z"/>
      <path class="cls-1" d="M612.18,92.98c5.25-9.73,12.39-17.3,21.44-22.7,9.05-5.4,19.05-8.1,30-8.1,9.88,0,18.51,1.94,25.89,5.82,7.37,3.88,13.27,8.71,17.68,14.49v-18.25h26.23v125.69h-26.23v-18.71c-4.41,5.93-10.42,10.88-18.02,14.83-7.61,3.95-16.27,5.93-26,5.93-10.8,0-20.68-2.77-29.66-8.33-8.98-5.55-16.08-13.3-21.33-23.27-5.25-9.96-7.87-21.25-7.87-33.87s2.62-23.8,7.87-33.53Zm89.65,11.4c-3.57-6.39-8.25-11.25-14.03-14.6-5.78-3.34-12.01-5.02-18.71-5.02s-12.93,1.64-18.7,4.9c-5.78,3.27-10.46,8.06-14.03,14.37-3.58,6.31-5.36,13.8-5.36,22.47s1.79,16.28,5.36,22.81c3.57,6.54,8.29,11.52,14.14,14.94,5.85,3.42,12.05,5.13,18.59,5.13s12.93-1.67,18.71-5.02c5.78-3.34,10.46-8.25,14.03-14.71,3.57-6.46,5.36-14.03,5.36-22.7s-1.79-16.2-5.36-22.58Z"/>
      <path class="cls-1" d="M866.76,69.94c8.13,4.72,14.18,10.65,18.13,17.79v-22.81h20.99v127.74c0,11.4-2.43,21.56-7.3,30.45-4.87,8.9-11.83,15.85-20.87,20.87-9.05,5.02-19.58,7.53-31.59,7.53-16.42,0-30.11-3.88-41.06-11.63-10.95-7.76-17.41-18.33-19.39-31.71h20.53c2.28,7.6,6.99,13.72,14.14,18.36,7.15,4.64,15.74,6.96,25.78,6.96,11.41,0,20.72-3.58,27.95-10.72,7.22-7.15,10.84-17.19,10.84-30.11v-26.23c-4.11,7.3-10.19,13.38-18.25,18.25-8.06,4.87-17.49,7.3-28.29,7.3s-21.18-2.74-30.22-8.21c-9.05-5.48-16.16-13.15-21.33-23.04-5.17-9.88-7.76-21.13-7.76-33.76s2.58-23.99,7.76-33.65c5.17-9.65,12.28-17.14,21.33-22.47,9.04-5.32,19.12-7.98,30.22-7.98s20.26,2.36,28.4,7.07Zm12.43,32.62c-3.8-6.99-8.94-12.35-15.4-16.08-6.47-3.72-13.57-5.59-21.33-5.59s-14.83,1.83-21.21,5.48c-6.39,3.65-11.49,8.97-15.29,15.97-3.8,7-5.7,15.21-5.7,24.64s1.9,17.91,5.7,24.98c3.8,7.07,8.9,12.47,15.29,16.2,6.38,3.73,13.46,5.59,21.21,5.59s14.86-1.86,21.33-5.59c6.46-3.73,11.6-9.13,15.4-16.2,3.8-7.07,5.7-15.32,5.7-24.75s-1.9-17.64-5.7-24.64Z"/>
      <path class="cls-1" d="M1031.57,64.92v125.01h-20.76v-18.48c-3.96,6.39-9.47,11.37-16.54,14.94-7.07,3.57-14.87,5.36-23.38,5.36-9.73,0-18.48-2.01-26.23-6.05-7.76-4.03-13.88-10.07-18.36-18.13-4.49-8.06-6.73-17.87-6.73-29.43V64.92h20.53v70.49c0,12.32,3.12,21.78,9.35,28.4,6.23,6.61,14.75,9.92,25.55,9.92s19.84-3.42,26.23-10.27c6.39-6.84,9.58-16.8,9.58-29.88V64.92h20.76Z"/>
      <path class="cls-1" d="M1082.78,68.57c6.77-3.95,15.02-5.93,24.75-5.93v21.44h-5.48c-23.27,0-34.9,12.63-34.9,37.87v67.98h-20.76V64.92h20.76v20.3c3.65-7.15,8.86-12.69,15.63-16.65Z"/>
      <path class="cls-1" d="M1222.04,64.92v125.01h-20.76v-18.48c-3.96,6.39-9.47,11.37-16.54,14.94-7.07,3.57-14.87,5.36-23.38,5.36-9.73,0-18.48-2.01-26.23-6.05-7.76-4.03-13.88-10.07-18.36-18.13-4.49-8.06-6.73-17.87-6.73-29.43V64.92h20.53v70.49c0,12.32,3.12,21.78,9.35,28.4,6.23,6.61,14.75,9.92,25.55,9.92s19.84-3.42,26.23-10.27c6.39-6.84,9.58-16.8,9.58-29.88V64.92h20.76Z"/>
      <g>
        <path class="cls-1" d="M235.17,15.39H15.68C7.02,15.39,0,22.4,0,31.07V172.53c.39,22.88,32.86,14.06,46.91,15.68v39.02c-.21,6.73,8.67,10.47,13.34,5.57l45.32-44.59H235.17c8.67,0,15.68-7.04,15.68-15.68V31.07c0-8.67-7.02-15.68-15.68-15.68ZM97.29,174.34l-14.55,14.34-4.72,4.64-15.42,15.19v-36H15.66V31.04H235.14V172.51H99.14l-1.37,1.34-.49,.49Z"/>
        <path class="cls-1" d="M14.57,29.39V173.85H240.2V29.39H14.57ZM97.05,121.96c-.1-.08-.23-.1-.36-.08-1.26,.21-2.55,.31-3.82,.31-10.32,0-19.4-6.14-23.37-15.5-.03-.08-.08-.13-.13-.18-6.65-5.65-10.55-13.95-10.55-22.7,0-15.4,11.74-28.09,26.72-29.63,.15,0,.28-.1,.39-.23,5.24-8.38,14.52-13.72,24.61-13.72,2.45,0,4.85,.31,7.22,.95,.15,.03,.31,0,.44-.08,4.39-3.22,9.67-4.98,15.14-4.98,7.71,0,14.83,3.38,19.68,9.13,.1,.1,.26,.18,.41,.18,.28-.03,.59-.03,.88-.03,12.64,0,23.21,9.11,25.48,21.12,.03,.13,.1,.26,.21,.33,7.43,5.03,12.02,13.46,12.02,22.62,0,7.58-3.17,14.73-8.59,19.81-.13,.1-.18,.28-.15,.44,.15,1.03,.23,2.04,.23,3.07,0,11.86-9.67,21.53-21.54,21.53-1.86,0-3.66-.26-5.44-.72-.13-.03-.26-.03-.36,.03-.05,.03-.1,.05-.15,.08-.23,.13-.33,.39-.23,.64,1.42,3.66,2.35,7.71,2.35,11.94,0,4.85-1.24,9.93-4.46,14.83-1.55,2.37-4.02,3.51-6.47,3.51-2.94,0-5.88-1.65-7.2-4.8-2.01-4.8-7.69-10.47-13.21-15.94-5.83-5.83-11.79-11.79-15.22-18.31-.1-.21-.28-.31-.52-.28-.82,.1-1.7,.15-2.55,.15-4.1,0-8.07-1.24-11.45-3.51Z"/>
        <rect class="cls-1" x="55.72" y="158.92" width="41.57" height="34.41"/>
        <rect class="cls-1" x="53" y="175.24" width="29.73" height="34.41"/>
      </g>
    </g>
  </g>
</svg>